<?xml version="1.0" standalone="no"?>
<!DOCTYPE svg PUBLIC "-//W3C//DTD SVG 20010904//EN"
 "http://www.w3.org/TR/2001/REC-SVG-20010904/DTD/svg10.dtd">
<svg version="1.0" xmlns="http://www.w3.org/2000/svg"
 width="512.000000pt" height="512.000000pt" viewBox="0 0 512.000000 512.000000"
 preserveAspectRatio="xMidYMid meet">
<metadata>
Created by potrace 1.15, written by Peter Selinger 2001-2017
</metadata>
<g transform="translate(0.000000,512.000000) scale(0.100000,-0.100000)"
fill="#243565" stroke="none">
<path d="M2375 5110 c-443 -33 -868 -180 -1245 -432 -548 -368 -951 -970
-1073 -1608 -42 -219 -50 -294 -50 -510 0 -289 37 -528 123 -790 255 -780 860
-1385 1640 -1640 262 -86 501 -123 790 -123 289 0 528 37 790 123 780 255
1385 860 1640 1640 86 262 123 501 123 790 0 289 -37 528 -123 790 -311 951
-1134 1625 -2135 1749 -119 15 -355 20 -480 11z m1492 -1581 c88 -33 142 -161
113 -267 -19 -72 -76 -119 -211 -175 -141 -57 -265 -133 -413 -251 -359 -286
-853 -868 -932 -1098 -47 -138 -200 -200 -326 -131 -39 21 -66 50 -130 137
-245 334 -397 484 -720 709 -53 38 -72 58 -94 102 -23 49 -26 63 -20 117 9 91
51 149 136 187 89 40 154 25 288 -66 197 -135 430 -342 568 -507 l50 -58 44
63 c199 289 638 746 915 955 200 150 421 265 555 287 52 9 150 7 177 -4z"/>
</g>
</svg>
